<svg width="800" height="800" viewBox="0 0 800 800" fill="none" xmlns="http://www.w3.org/2000/svg">
  <rect width="800" height="800" rx="72" fill="url(#bg)"/>
  <path d="M147 568C147 511.115 193.115 465 250 465H550C606.885 465 653 511.115 653 568V602H147V568Z" fill="#8AD4FF"/>
  <circle cx="400" cy="306" r="176" fill="#FFFDF8"/>
  <circle cx="342" cy="303" r="17" fill="#47638C"/>
  <circle cx="458" cy="303" r="17" fill="#47638C"/>
  <path d="M366 370C389.333 386.667 412.667 386.667 436 370" stroke="#FFB4D1" stroke-width="14" stroke-linecap="round"/>
  <path d="M247 230C272 188.667 319.667 168 390 168C460.333 168 514.667 188.667 553 230" stroke="#D9EDFF" stroke-width="32" stroke-linecap="round"/>
  <path d="M179 178C179 136.026 213.026 102 255 102C281.243 102 304.38 115.24 318 135.409C328.682 126.327 342.515 121 357.595 121C391.399 121 418.803 147.799 418.803 180.858C418.803 181.244 418.799 181.628 418.792 182.011H179V178Z" fill="#FFFFFF" fill-opacity="0.75"/>
  <circle cx="604" cy="171" r="16" fill="#FFF2A0"/>
  <defs>
    <linearGradient id="bg" x1="115" y1="88" x2="691" y2="709" gradientUnits="userSpaceOnUse">
      <stop stop-color="#EAF7FF"/>
      <stop offset="0.49" stop-color="#DDF3FF"/>
      <stop offset="1" stop-color="#FFF0F7"/>
    </linearGradient>
  </defs>
</svg>
