<svg width="800" height="800" viewBox="0 0 800 800" fill="none" xmlns="http://www.w3.org/2000/svg">
  <rect width="800" height="800" rx="72" fill="url(#bg)"/>
  <path d="M244 603C244 485.363 339.363 390 457 390V390C574.637 390 670 485.363 670 603V620H244V603Z" fill="#2E223B"/>
  <path d="M130 603C130 485.363 225.363 390 343 390V390C460.637 390 556 485.363 556 603V620H130V603Z" fill="#1C1428"/>
  <path d="M252 298C252 201.351 330.351 123 427 123V123C523.649 123 602 201.351 602 298V423C602 471.049 563.049 510 515 510H339C290.951 510 252 471.049 252 423V298Z" fill="#F4E8FF"/>
  <circle cx="370" cy="302" r="17" fill="#231734"/>
  <circle cx="485" cy="302" r="17" fill="#231734"/>
  <path d="M383 364C413.667 381.333 444.333 381.333 475 364" stroke="#B782FF" stroke-width="14" stroke-linecap="round"/>
  <path d="M331 206L287 152" stroke="#231734" stroke-width="28" stroke-linecap="round"/>
  <path d="M520 206L564 152" stroke="#231734" stroke-width="28" stroke-linecap="round"/>
  <defs>
    <linearGradient id="bg" x1="98" y1="83" x2="710" y2="707" gradientUnits="userSpaceOnUse">
      <stop stop-color="#FCF2FF"/>
      <stop offset="0.51" stop-color="#E9DBFF"/>
      <stop offset="1" stop-color="#D1D6FF"/>
    </linearGradient>
  </defs>
</svg>
