<svg width="800" height="800" viewBox="0 0 800 800" fill="none" xmlns="http://www.w3.org/2000/svg">
  <rect width="800" height="800" rx="72" fill="url(#bg)"/>
  <path d="M161 612C183 501.333 262.667 446 400 446C537.333 446 617 501.333 639 612H161Z" fill="#A9C39C"/>
  <circle cx="401" cy="278" r="166" fill="#FFF8F0"/>
  <circle cx="344" cy="284" r="16" fill="#725A45"/>
  <circle cx="458" cy="284" r="16" fill="#725A45"/>
  <path d="M366 348C390.667 365.333 415.333 365.333 440 348" stroke="#E1AC9D" stroke-width="14" stroke-linecap="round"/>
  <path d="M248 530C248 446.157 316.157 378 400 378H402C485.843 378 554 446.157 554 530V620H248V530Z" fill="#D9E6C8"/>
  <rect x="366" y="129" width="70" height="114" rx="35" fill="#FFE8A1"/>
  <path d="M401 129V95" stroke="#E0C77A" stroke-width="16" stroke-linecap="round"/>
  <defs>
    <linearGradient id="bg" x1="102" y1="86" x2="701" y2="709" gradientUnits="userSpaceOnUse">
      <stop stop-color="#FFF7F0"/>
      <stop offset="0.46" stop-color="#F7F0E4"/>
      <stop offset="1" stop-color="#DDE7D1"/>
    </linearGradient>
  </defs>
</svg>
