<svg width="800" height="800" viewBox="0 0 800 800" fill="none" xmlns="http://www.w3.org/2000/svg">
  <rect width="800" height="800" rx="72" fill="url(#bg)"/>
  <path d="M129 601C129 463.376 240.376 352 378 352H422C559.624 352 671 463.376 671 601V622H129V601Z" fill="#25173D"/>
  <circle cx="400" cy="285" r="173" fill="#FFF8FF"/>
  <path d="M261 271C277.762 189.939 349.087 132 432 132C514.913 132 586.238 189.939 603 271L616 334C628.844 396.111 581.419 454 518 454H346C282.581 454 235.156 396.111 248 334L261 271Z" fill="#11111B"/>
  <ellipse cx="347" cy="311" rx="22" ry="28" fill="#FFE680"/>
  <ellipse cx="464" cy="311" rx="22" ry="28" fill="#FFE680"/>
  <path d="M359 388C391.667 413.333 424.333 413.333 457 388" stroke="#F75BA6" stroke-width="16" stroke-linecap="round"/>
  <path d="M272 198L205 120" stroke="#11111B" stroke-width="38" stroke-linecap="round"/>
  <path d="M523 198L590 120" stroke="#11111B" stroke-width="38" stroke-linecap="round"/>
  <circle cx="164" cy="196" r="14" fill="#FFD5ED"/>
  <circle cx="633" cy="203" r="11" fill="#FFD5ED"/>
  <path d="M645 122L659 147H688L664 163L675 189L645 173L615 189L626 163L602 147H631L645 122Z" fill="#FFF3AF"/>
  <defs>
    <linearGradient id="bg" x1="97" y1="89" x2="709" y2="703" gradientUnits="userSpaceOnUse">
      <stop stop-color="#0B0A18"/>
      <stop offset="0.48" stop-color="#392159"/>
      <stop offset="1" stop-color="#FF76BA"/>
    </linearGradient>
  </defs>
</svg>
