<svg width="800" height="800" viewBox="0 0 800 800" fill="none" xmlns="http://www.w3.org/2000/svg">
  <rect width="800" height="800" rx="72" fill="url(#bg)"/>
  <circle cx="620" cy="158" r="86" fill="#FFF6B2" fill-opacity="0.92"/>
  <path d="M168 563C168 477.359 237.359 408 323 408H477C562.641 408 632 477.359 632 563V616H168V563Z" fill="#4130A5"/>
  <circle cx="400" cy="278" r="168" fill="#EEE7FF"/>
  <circle cx="344" cy="285" r="18" fill="#1E194A"/>
  <circle cx="461" cy="285" r="18" fill="#1E194A"/>
  <path d="M366 350C390.667 367.333 415.333 367.333 440 350" stroke="#FF80DB" stroke-width="14" stroke-linecap="round"/>
  <path d="M280 217C315.333 166.333 355.333 141 400 141C444.667 141 490.333 166.333 537 217" stroke="#7165E9" stroke-width="34" stroke-linecap="round"/>
  <path d="M171 197L180 221H206L185 236L193 260L171 246L149 260L157 236L136 221H162L171 197Z" fill="#FFF6B2"/>
  <path d="M624 285L633 309H659L638 324L646 348L624 334L602 348L610 324L589 309H615L624 285Z" fill="#FFE39D"/>
  <defs>
    <linearGradient id="bg" x1="96" y1="72" x2="714" y2="724" gradientUnits="userSpaceOnUse">
      <stop stop-color="#1E194B"/>
      <stop offset="0.54" stop-color="#5A47D7"/>
      <stop offset="1" stop-color="#FF8FDB"/>
    </linearGradient>
  </defs>
</svg>
