<svg width="800" height="800" viewBox="0 0 800 800" fill="none" xmlns="http://www.w3.org/2000/svg">
  <rect width="800" height="800" rx="72" fill="url(#bg)"/>
  <path d="M160 605C160 481.326 260.326 381 384 381H416C539.674 381 640 481.326 640 605V620H160V605Z" fill="url(#body)"/>
  <path d="M257 294C257 198.455 334.455 121 430 121V121C525.545 121 603 198.455 603 294V425C603 473.601 563.601 513 515 513H345C296.399 513 257 473.601 257 425V294Z" fill="#F6F6FF"/>
  <circle cx="373" cy="298" r="17" fill="#413850"/>
  <circle cx="487" cy="298" r="17" fill="#413850"/>
  <path d="M388 361C416.667 377.667 445.333 377.667 474 361" stroke="#FF96B9" stroke-width="14" stroke-linecap="round"/>
  <path d="M335 206L293 152" stroke="#6B59C6" stroke-width="28" stroke-linecap="round"/>
  <path d="M521 206L563 152" stroke="#6B59C6" stroke-width="28" stroke-linecap="round"/>
  <defs>
    <linearGradient id="bg" x1="96" y1="83" x2="710" y2="710" gradientUnits="userSpaceOnUse">
      <stop stop-color="#EEF6FF"/>
      <stop offset="0.49" stop-color="#EAE4FF"/>
      <stop offset="1" stop-color="#FFD6E7"/>
    </linearGradient>
    <linearGradient id="body" x1="200" y1="398" x2="603" y2="603" gradientUnits="userSpaceOnUse">
      <stop stop-color="#78E0FF"/>
      <stop offset="0.51" stop-color="#B29AFF"/>
      <stop offset="1" stop-color="#FF94C6"/>
    </linearGradient>
  </defs>
</svg>
